<svg width="16" height="16" viewBox="0 0 16 16" fill="none" xmlns="http://www.w3.org/2000/svg">
<path d="M3.52 1.11995H12.48C12.6592 1.11995 12.8107 1.1844 12.9344 1.31328C13.0581 1.44217 13.12 1.59995 13.12 1.78662V14.5466C13.12 14.6355 13.088 14.7133 13.024 14.7799C12.96 14.8466 12.8853 14.8799 12.8 14.8799C12.7403 14.8799 12.6848 14.8622 12.6336 14.8266L8 11.8L3.3664 14.8266C3.29814 14.8799 3.2192 14.8955 3.1296 14.8733C3.04 14.8511 2.97387 14.7999 2.9312 14.7199C2.89707 14.6666 2.88 14.6088 2.88 14.5466V1.78662C2.88 1.59995 2.94187 1.44217 3.0656 1.31328C3.18934 1.1844 3.3408 1.11995 3.52 1.11995ZM11.84 2.45328H4.16V12.7466L8 10.2266L11.84 12.7466V2.45328Z" fill="#2563EB"/>
</svg>
