<svg width="24" height="24" viewBox="0 0 24 24" fill="none" xmlns="http://www.w3.org/2000/svg">
<path d="M16.0819 7.33334H7.91814V16.6667H16.0819V7.33334ZM6.75189 6.75001C6.75189 6.58668 6.80826 6.44862 6.921 6.33584C7.03374 6.22307 7.17174 6.16668 7.33502 6.16668H16.665C16.8283 6.16668 16.9663 6.22307 17.079 6.33584C17.1918 6.44862 17.2481 6.58668 17.2481 6.75001V17.25C17.2481 17.4056 17.1918 17.5417 17.079 17.6583C16.9663 17.775 16.8283 17.8333 16.665 17.8333H7.33502C7.17174 17.8333 7.03374 17.777 6.921 17.6642C6.80826 17.5514 6.75189 17.4133 6.75189 17.25V6.75001ZM11.5918 12.6533L14.0643 10.18L14.8807 11.0083L11.5918 14.2983L9.31764 12.035L10.1457 11.2067L11.5918 12.6533Z" fill="#9CA3AF"/>
</svg>
