<svg width="16" height="16" viewBox="0 0 16 16" fill="none" xmlns="http://www.w3.org/2000/svg">
<path d="M2.88006 13.3333V9.33332C2.88006 8.36443 3.11473 7.46666 3.58406 6.63999C4.03633 5.83999 4.64646 5.20443 5.41446 4.73332C6.20806 4.24443 7.06993 3.99999 8.00006 3.99999C8.93019 3.99999 9.79206 4.24443 10.5857 4.73332C11.3537 5.20443 11.9638 5.83999 12.4161 6.63999C12.8854 7.46666 13.1201 8.36443 13.1201 9.33332V13.3333H13.7601V14.6667H2.24006V13.3333H2.88006ZM4.16006 13.3333H11.8401V9.33332C11.8401 8.61332 11.6651 7.94221 11.3153 7.31999C10.9739 6.71555 10.5131 6.23555 9.93286 5.87999C9.33553 5.51555 8.69126 5.33332 8.00006 5.33332C7.30886 5.33332 6.66459 5.51555 6.06726 5.87999C5.48699 6.23555 5.02619 6.71555 4.68486 7.31999C4.33499 7.94221 4.16006 8.61332 4.16006 9.33332V13.3333ZM7.36006 1.33332H8.64006V3.33332H7.36006V1.33332ZM12.9793 3.19999L13.8881 4.14666L12.5313 5.55999L11.6225 4.61332L12.9793 3.19999ZM2.11206 4.14666L3.02086 3.19999L4.37766 4.61332L3.46886 5.55999L2.11206 4.14666ZM4.80006 9.33332C4.80006 8.72888 4.94299 8.1711 5.22886 7.65999C5.51473 7.14888 5.90299 6.74443 6.39366 6.44666C6.88433 6.14888 7.41979 5.99999 8.00006 5.99999V7.33332C7.65019 7.33332 7.32806 7.42221 7.03366 7.59999C6.73926 7.77777 6.50673 8.01999 6.33606 8.32666C6.16539 8.63332 6.08006 8.96888 6.08006 9.33332H4.80006Z" fill="#DC2626"/>
</svg>
