<svg width="16" height="16" viewBox="0 0 16 16" fill="none" xmlns="http://www.w3.org/2000/svg">
<path d="M7.99995 15.1599C8.87035 15.1688 9.67675 14.9422 10.4192 14.4799C11.1445 14.0444 11.7205 13.4488 12.1472 12.6933C12.5824 11.911 12.8 11.0666 12.8 10.1599C12.8 9.7066 12.6933 9.15994 12.48 8.51994C11.4133 9.61327 10.6026 10.1644 10.048 10.1733C10.6794 9.01771 11.0805 7.99994 11.2512 7.11994C11.4133 6.25771 11.3621 5.4666 11.0976 4.7466C10.8586 4.07994 10.4106 3.41771 9.75355 2.75994C9.19888 2.19993 8.40102 1.55549 7.35995 0.826601C7.44528 1.74216 7.35568 2.5866 7.09115 3.35994C6.88635 3.97327 6.56208 4.55549 6.11835 5.1066C5.87088 5.41771 5.50395 5.79549 5.01755 6.23994L4.71035 6.51994C4.23248 6.99105 3.86555 7.53327 3.60955 8.1466C3.33648 8.7866 3.19995 9.45771 3.19995 10.1599C3.19995 11.0666 3.41755 11.911 3.85275 12.6933C4.27942 13.4488 4.85542 14.0444 5.58075 14.4799C6.32315 14.9333 7.12955 15.1599 7.99995 15.1599ZM8.44795 3.31994C9.14768 3.94216 9.61702 4.53549 9.85595 5.09994C10.0949 5.66438 10.1376 6.30216 9.98395 7.01327C9.83888 7.67105 9.48902 8.50216 8.93435 9.5066C8.78075 9.79105 8.73168 10.091 8.78715 10.4066C8.84262 10.7222 8.98768 10.9844 9.22235 11.1933C9.45702 11.4022 9.73222 11.5066 10.048 11.5066C10.4746 11.4977 10.9269 11.3644 11.4048 11.1066C11.2768 11.6222 11.0464 12.0888 10.7136 12.5066C10.3808 12.9244 9.97968 13.2488 9.51035 13.4799C9.04102 13.711 8.53755 13.8266 7.99995 13.8266C7.35995 13.8266 6.77115 13.6644 6.23355 13.3399C5.69595 13.0155 5.26928 12.571 4.95355 12.0066C4.63782 11.4422 4.47995 10.8266 4.47995 10.1599C4.47995 9.65327 4.57595 9.16882 4.76795 8.7066C4.95995 8.24438 5.23515 7.83994 5.59355 7.49327L6.09275 7.0266C6.37435 6.76882 6.61328 6.52438 6.80955 6.29327C7.62875 5.3866 8.17488 4.39549 8.44795 3.31994Z" fill="#EA580C"/>
</svg>
