<svg width="24" height="24" viewBox="0 0 24 24" fill="none" xmlns="http://www.w3.org/2000/svg">
<path d="M7.33495 7.91667V16.0833H16.665V9.08333H11.755L10.5888 7.91667H7.33495ZM12.2449 7.91667H17.2481C17.4114 7.91667 17.5494 7.97306 17.6621 8.08583C17.7748 8.19861 17.8312 8.33667 17.8312 8.5V16.6667C17.8312 16.83 17.7748 16.9681 17.6621 17.0808C17.5494 17.1936 17.4114 17.25 17.2481 17.25H6.75183C6.58855 17.25 6.45054 17.1936 6.33781 17.0808C6.22507 16.9681 6.1687 16.83 6.1687 16.6667V7.33333C6.1687 7.17 6.22507 7.03194 6.33781 6.91917C6.45054 6.80639 6.58855 6.75 6.75183 6.75H11.0786L12.2449 7.91667Z" fill="#9CA3AF"/>
</svg>
