<svg width="25" height="24" viewBox="0 0 25 24" fill="none" xmlns="http://www.w3.org/2000/svg">
<path d="M17.7481 16.8767C17.7481 17.04 17.6917 17.178 17.579 17.2908C17.4662 17.4036 17.3282 17.46 17.165 17.46H7.83496C7.67168 17.46 7.53367 17.4036 7.42094 17.2908C7.3082 17.178 7.25183 17.04 7.25183 16.8767V10.7517C7.25183 10.5572 7.32569 10.4017 7.47342 10.285L12.1384 6.65666C12.2473 6.57888 12.3678 6.53999 12.5 6.53999C12.6321 6.53999 12.7526 6.57888 12.8615 6.65666L17.5265 10.285C17.6742 10.4017 17.7481 10.5572 17.7481 10.7517V16.8767ZM16.5818 16.2933V11.0317L12.5 7.85832L8.41808 11.0317V16.2933H16.5818Z" fill="#9CA3AF"/>
</svg>
