<svg width="24" height="24" viewBox="0 0 24 24" fill="none" xmlns="http://www.w3.org/2000/svg">
<path d="M17.2481 16.8767C17.2481 17.04 17.1917 17.178 17.079 17.2908C16.9662 17.4036 16.8282 17.46 16.665 17.46H7.33496C7.17168 17.46 7.03367 17.4036 6.92094 17.2908C6.8082 17.178 6.75183 17.04 6.75183 16.8767V10.7517C6.75183 10.5572 6.82569 10.4017 6.97342 10.285L11.6384 6.65666C11.7473 6.57888 11.8678 6.53999 12 6.53999C12.1321 6.53999 12.2526 6.57888 12.3615 6.65666L17.0265 10.285C17.1742 10.4017 17.2481 10.5572 17.2481 10.7517V16.8767ZM16.0818 16.2933V11.0317L12 7.85832L7.91808 11.0317V16.2933H16.0818Z" fill="#6366F1"/>
</svg>
