<svg width="117" height="35" viewBox="0 0 117 35" fill="none" xmlns="http://www.w3.org/2000/svg">
<path d="M21.5354 25.972C21.8474 25.972 22.0874 26.116 22.2554 26.404C22.4474 26.692 22.5434 27.088 22.5434 27.592C22.5434 28.552 22.3154 29.296 21.8594 29.824C20.8754 31.024 19.7954 32.056 18.6194 32.92C17.4434 33.76 16.2794 34.18 15.1274 34.18C13.3034 34.18 11.9114 33.112 10.9514 30.976C9.94338 32.248 9.05538 33.1 8.28738 33.532C7.54338 33.964 6.66738 34.18 5.65938 34.18C4.19538 34.18 2.98338 33.64 2.02338 32.56C1.08738 31.456 0.619375 30.028 0.619375 28.276C0.619375 26.356 1.02738 24.58 1.84338 22.948C2.65938 21.292 3.77538 19.948 5.19138 18.916C6.63138 17.86 8.23938 17.236 10.0154 17.044C10.4714 12.388 11.3354 8.416 12.6074 5.128C13.9034 1.816 15.5954 0.159998 17.6834 0.159998C18.7154 0.159998 19.5674 0.627998 20.2394 1.564C20.9354 2.5 21.2834 3.916 21.2834 5.812C21.2834 8.5 20.6234 11.644 19.3034 15.244C17.9834 18.844 16.2194 22.54 14.0114 26.332C14.1074 27.724 14.3114 28.72 14.6234 29.32C14.9594 29.92 15.3794 30.22 15.8834 30.22C16.5314 30.22 17.1914 29.932 17.8634 29.356C18.5354 28.78 19.4354 27.82 20.5634 26.476C20.8514 26.14 21.1754 25.972 21.5354 25.972ZM17.2874 3.688C16.8314 3.688 16.3754 4.504 15.9194 6.136C15.4634 7.744 15.0674 9.856 14.7314 12.472C14.4194 15.088 14.1914 17.824 14.0474 20.68C16.7354 14.824 18.0794 10.12 18.0794 6.568C18.0794 5.656 17.9954 4.948 17.8274 4.444C17.6834 3.94 17.5034 3.688 17.2874 3.688ZM6.91938 30.544C7.37538 30.544 7.83138 30.364 8.28738 30.004C8.74338 29.62 9.31938 28.924 10.0154 27.916C9.77538 26.62 9.65538 25.168 9.65538 23.56C9.65538 22.984 9.67938 22.048 9.72738 20.752C8.40738 21.16 7.30338 22.048 6.41538 23.416C5.55138 24.76 5.11938 26.26 5.11938 27.916C5.11938 29.668 5.71938 30.544 6.91938 30.544ZM37.9747 22.948C38.2867 22.948 38.5267 23.104 38.6947 23.416C38.8627 23.728 38.9467 24.124 38.9467 24.604C38.9467 25.756 38.5987 26.44 37.9027 26.656C36.4627 27.16 34.8787 27.448 33.1507 27.52C32.6947 29.536 31.7947 31.156 30.4507 32.38C29.1067 33.58 27.5827 34.18 25.8787 34.18C24.4387 34.18 23.2027 33.832 22.1707 33.136C21.1627 32.44 20.3947 31.516 19.8667 30.364C19.3387 29.212 19.0747 27.964 19.0747 26.62C19.0747 24.796 19.4227 23.176 20.1187 21.76C20.8147 20.32 21.7747 19.204 22.9987 18.412C24.2227 17.596 25.5787 17.188 27.0667 17.188C28.8907 17.188 30.3547 17.824 31.4587 19.096C32.5867 20.344 33.2467 21.892 33.4387 23.74C34.5667 23.668 35.9107 23.428 37.4707 23.02C37.6627 22.972 37.8307 22.948 37.9747 22.948ZM26.1667 30.364C26.9347 30.364 27.5947 30.052 28.1467 29.428C28.7227 28.804 29.1067 27.904 29.2987 26.728C28.5547 26.224 27.9787 25.564 27.5707 24.748C27.1867 23.932 26.9947 23.068 26.9947 22.156C26.9947 21.772 27.0307 21.388 27.1027 21.004H26.9227C25.9627 21.004 25.1587 21.472 24.5107 22.408C23.8867 23.32 23.5747 24.616 23.5747 26.296C23.5747 27.616 23.8267 28.624 24.3307 29.32C24.8587 30.016 25.4707 30.364 26.1667 30.364ZM40.5729 14.848C39.5649 14.848 38.8089 14.62 38.3049 14.164C37.8009 13.684 37.5489 13.024 37.5489 12.184C37.5489 11.344 37.8729 10.648 38.5209 10.096C39.1929 9.52 40.0209 9.232 41.0049 9.232C41.8929 9.232 42.6129 9.448 43.1649 9.88C43.7169 10.312 43.9929 10.924 43.9929 11.716C43.9929 12.676 43.6809 13.444 43.0569 14.02C42.4329 14.572 41.6049 14.848 40.5729 14.848ZM40.2849 34.18C38.7249 34.18 37.5849 33.628 36.8649 32.524C36.1689 31.42 35.8209 29.956 35.8209 28.132C35.8209 27.052 35.9529 25.672 36.2169 23.992C36.5049 22.288 36.8649 20.704 37.2969 19.24C37.5129 18.472 37.8009 17.944 38.1609 17.656C38.5209 17.368 39.0969 17.224 39.8889 17.224C41.1129 17.224 41.7249 17.632 41.7249 18.448C41.7249 19.048 41.4969 20.44 41.0409 22.624C40.4649 25.264 40.1769 27.052 40.1769 27.988C40.1769 28.708 40.2729 29.26 40.4649 29.644C40.6569 30.028 40.9809 30.22 41.4369 30.22C41.8689 30.22 42.4089 29.92 43.0569 29.32C43.7049 28.72 44.5689 27.772 45.6489 26.476C45.9369 26.14 46.2609 25.972 46.6209 25.972C46.9329 25.972 47.1729 26.116 47.3409 26.404C47.5329 26.692 47.6289 27.088 47.6289 27.592C47.6289 28.552 47.4009 29.296 46.9449 29.824C44.5689 32.728 42.3489 34.18 40.2849 34.18ZM60.7723 25.972C61.0843 25.972 61.3243 26.116 61.4923 26.404C61.6843 26.692 61.7803 27.088 61.7803 27.592C61.7803 28.552 61.5523 29.296 61.0963 29.824C60.0643 31.096 58.9363 32.14 57.7123 32.956C56.4883 33.772 55.0843 34.18 53.5003 34.18C48.6043 34.18 46.1563 30.736 46.1563 23.848C46.1563 22.792 46.1923 21.724 46.2643 20.644H44.8603C44.1403 20.644 43.6483 20.512 43.3843 20.248C43.1443 19.984 43.0243 19.564 43.0243 18.988C43.0243 17.644 43.5643 16.972 44.6443 16.972H46.6963C47.1043 14.332 47.7283 11.92 48.5683 9.736C49.4083 7.552 50.4163 5.812 51.5923 4.516C52.7923 3.22 54.0763 2.572 55.4443 2.572C56.4523 2.572 57.2443 3.016 57.8203 3.904C58.3963 4.792 58.6843 5.908 58.6843 7.252C58.6843 10.972 57.1243 14.212 54.0043 16.972H58.0363C58.4203 16.972 58.6963 17.056 58.8643 17.224C59.0323 17.392 59.1163 17.704 59.1163 18.16C59.1163 19.816 57.7603 20.644 55.0483 20.644H50.6563C50.6083 21.844 50.5843 22.78 50.5843 23.452C50.5843 25.948 50.8723 27.7 51.4483 28.708C52.0483 29.716 52.9843 30.22 54.2563 30.22C55.2883 30.22 56.2003 29.908 56.9923 29.284C57.7843 28.66 58.7203 27.724 59.8003 26.476C60.0883 26.14 60.4123 25.972 60.7723 25.972ZM54.4723 6.028C54.1123 6.028 53.7043 6.484 53.2483 7.396C52.8163 8.284 52.3963 9.532 51.9883 11.14C51.6043 12.724 51.2803 14.488 51.0163 16.432C52.4323 15.208 53.4883 13.84 54.1843 12.328C54.9043 10.792 55.2643 9.4 55.2643 8.152C55.2643 6.736 55.0003 6.028 54.4723 6.028ZM79.2971 25.972C79.6091 25.972 79.8491 26.116 80.0171 26.404C80.2091 26.692 80.3051 27.088 80.3051 27.592C80.3051 28.552 80.0771 29.296 79.6211 29.824C78.6371 31.024 77.5571 32.056 76.3811 32.92C75.2051 33.76 74.0411 34.18 72.8891 34.18C71.0651 34.18 69.6731 33.112 68.7131 30.976C67.7051 32.248 66.8171 33.1 66.0491 33.532C65.3051 33.964 64.4291 34.18 63.4211 34.18C61.9571 34.18 60.7451 33.64 59.7851 32.56C58.8491 31.456 58.3811 30.028 58.3811 28.276C58.3811 26.356 58.7891 24.58 59.6051 22.948C60.4211 21.292 61.5371 19.948 62.9531 18.916C64.3931 17.86 66.0011 17.236 67.7771 17.044C68.2331 12.388 69.0971 8.416 70.3691 5.128C71.6651 1.816 73.3571 0.159998 75.4451 0.159998C76.4771 0.159998 77.3291 0.627998 78.0011 1.564C78.6971 2.5 79.0451 3.916 79.0451 5.812C79.0451 8.5 78.3851 11.644 77.0651 15.244C75.7451 18.844 73.9811 22.54 71.7731 26.332C71.8691 27.724 72.0731 28.72 72.3851 29.32C72.7211 29.92 73.1411 30.22 73.6451 30.22C74.2931 30.22 74.9531 29.932 75.6251 29.356C76.2971 28.78 77.1971 27.82 78.3251 26.476C78.6131 26.14 78.9371 25.972 79.2971 25.972ZM75.0491 3.688C74.5931 3.688 74.1371 4.504 73.6811 6.136C73.2251 7.744 72.8291 9.856 72.4931 12.472C72.1811 15.088 71.9531 17.824 71.8091 20.68C74.4971 14.824 75.8411 10.12 75.8411 6.568C75.8411 5.656 75.7571 4.948 75.5891 4.444C75.4451 3.94 75.2651 3.688 75.0491 3.688ZM64.6811 30.544C65.1371 30.544 65.5931 30.364 66.0491 30.004C66.5051 29.62 67.0811 28.924 67.7771 27.916C67.5371 26.62 67.4171 25.168 67.4171 23.56C67.4171 22.984 67.4411 22.048 67.4891 20.752C66.1691 21.16 65.0651 22.048 64.1771 23.416C63.3131 24.76 62.8811 26.26 62.8811 27.916C62.8811 29.668 63.4811 30.544 64.6811 30.544ZM95.7364 22.948C96.0484 22.948 96.2884 23.104 96.4564 23.416C96.6244 23.728 96.7084 24.124 96.7084 24.604C96.7084 25.756 96.3604 26.44 95.6644 26.656C94.2244 27.16 92.6404 27.448 90.9124 27.52C90.4564 29.536 89.5564 31.156 88.2124 32.38C86.8684 33.58 85.3444 34.18 83.6404 34.18C82.2004 34.18 80.9644 33.832 79.9324 33.136C78.9244 32.44 78.1564 31.516 77.6284 30.364C77.1004 29.212 76.8364 27.964 76.8364 26.62C76.8364 24.796 77.1844 23.176 77.8804 21.76C78.5764 20.32 79.5364 19.204 80.7604 18.412C81.9844 17.596 83.3404 17.188 84.8284 17.188C86.6524 17.188 88.1164 17.824 89.2204 19.096C90.3484 20.344 91.0084 21.892 91.2004 23.74C92.3284 23.668 93.6724 23.428 95.2324 23.02C95.4244 22.972 95.5924 22.948 95.7364 22.948ZM83.9284 30.364C84.6964 30.364 85.3564 30.052 85.9084 29.428C86.4844 28.804 86.8684 27.904 87.0604 26.728C86.3164 26.224 85.7404 25.564 85.3324 24.748C84.9484 23.932 84.7564 23.068 84.7564 22.156C84.7564 21.772 84.7924 21.388 84.8644 21.004H84.6844C83.7244 21.004 82.9204 21.472 82.2724 22.408C81.6484 23.32 81.3364 24.616 81.3364 26.296C81.3364 27.616 81.5884 28.624 82.0924 29.32C82.6204 30.016 83.2324 30.364 83.9284 30.364ZM98.3346 14.848C97.3266 14.848 96.5706 14.62 96.0666 14.164C95.5626 13.684 95.3106 13.024 95.3106 12.184C95.3106 11.344 95.6346 10.648 96.2826 10.096C96.9546 9.52 97.7826 9.232 98.7666 9.232C99.6546 9.232 100.375 9.448 100.927 9.88C101.479 10.312 101.755 10.924 101.755 11.716C101.755 12.676 101.443 13.444 100.819 14.02C100.195 14.572 99.3666 14.848 98.3346 14.848ZM98.0466 34.18C96.4866 34.18 95.3466 33.628 94.6266 32.524C93.9306 31.42 93.5826 29.956 93.5826 28.132C93.5826 27.052 93.7146 25.672 93.9786 23.992C94.2666 22.288 94.6266 20.704 95.0586 19.24C95.2746 18.472 95.5626 17.944 95.9226 17.656C96.2826 17.368 96.8586 17.224 97.6506 17.224C98.8746 17.224 99.4866 17.632 99.4866 18.448C99.4866 19.048 99.2586 20.44 98.8026 22.624C98.2266 25.264 97.9386 27.052 97.9386 27.988C97.9386 28.708 98.0346 29.26 98.2266 29.644C98.4186 30.028 98.7426 30.22 99.1986 30.22C99.6306 30.22 100.171 29.92 100.819 29.32C101.467 28.72 102.331 27.772 103.411 26.476C103.699 26.14 104.023 25.972 104.383 25.972C104.695 25.972 104.935 26.116 105.103 26.404C105.295 26.692 105.391 27.088 105.391 27.592C105.391 28.552 105.163 29.296 104.707 29.824C102.331 32.728 100.111 34.18 98.0466 34.18ZM108.418 20.644C108.37 21.844 108.346 22.78 108.346 23.452C108.346 25.18 108.43 26.536 108.598 27.52C108.79 28.48 109.09 29.176 109.498 29.608C109.93 30.016 110.518 30.22 111.262 30.22C111.646 30.22 112.102 30.1 112.63 29.86C113.158 29.62 113.638 29.308 114.07 28.924C114.334 28.684 114.598 28.564 114.862 28.564C115.15 28.564 115.378 28.732 115.546 29.068C115.738 29.38 115.834 29.764 115.834 30.22C115.834 30.676 115.738 31.12 115.546 31.552C115.378 31.984 115.114 32.344 114.754 32.632C113.506 33.664 112.09 34.18 110.506 34.18C108.226 34.18 106.558 33.232 105.502 31.336C104.446 29.416 103.918 26.92 103.918 23.848C103.918 22.792 103.954 21.724 104.026 20.644H102.622C101.902 20.644 101.41 20.512 101.146 20.248C100.906 19.984 100.786 19.564 100.786 18.988C100.786 17.644 101.326 16.972 102.406 16.972H104.458C104.866 14.332 105.49 11.92 106.33 9.736C107.17 7.552 108.178 5.812 109.354 4.516C110.554 3.22 111.838 2.572 113.206 2.572C114.214 2.572 115.006 3.016 115.582 3.904C116.158 4.792 116.446 5.908 116.446 7.252C116.446 10.972 114.886 14.212 111.766 16.972H115.798C116.182 16.972 116.458 17.056 116.626 17.224C116.794 17.392 116.878 17.704 116.878 18.16C116.878 19.816 115.522 20.644 112.81 20.644H108.418ZM112.234 6.028C111.874 6.028 111.466 6.484 111.01 7.396C110.578 8.284 110.158 9.532 109.75 11.14C109.366 12.724 109.042 14.488 108.778 16.432C110.194 15.208 111.25 13.84 111.946 12.328C112.666 10.792 113.026 9.4 113.026 8.152C113.026 6.736 112.762 6.028 112.234 6.028Z" fill="#6366F1"/>
</svg>
