<svg width="17" height="16" viewBox="0 0 17 16" fill="none" xmlns="http://www.w3.org/2000/svg">
<path d="M8.40623 2C8.14169 2 7.91556 2.09778 7.72783 2.29333C7.54009 2.48889 7.44623 2.72444 7.44623 3C7.44623 3.27556 7.54009 3.51111 7.72783 3.70667C7.91556 3.90222 8.14169 4 8.40623 4C8.67076 4 8.89689 3.90222 9.08463 3.70667C9.27236 3.51111 9.36623 3.27556 9.36623 3C9.36623 2.72444 9.27236 2.48889 9.08463 2.29333C8.89689 2.09778 8.67076 2 8.40623 2ZM8.40623 12C8.14169 12 7.91556 12.0978 7.72783 12.2933C7.54009 12.4889 7.44623 12.7244 7.44623 13C7.44623 13.2756 7.54009 13.5111 7.72783 13.7067C7.91556 13.9022 8.14169 14 8.40623 14C8.67076 14 8.89689 13.9022 9.08463 13.7067C9.27236 13.5111 9.36623 13.2756 9.36623 13C9.36623 12.7244 9.27236 12.4889 9.08463 12.2933C8.89689 12.0978 8.67076 12 8.40623 12ZM8.40623 7C8.14169 7 7.91556 7.09778 7.72783 7.29333C7.54009 7.48889 7.44623 7.72444 7.44623 8C7.44623 8.27556 7.54009 8.51111 7.72783 8.70667C7.91556 8.90222 8.14169 9 8.40623 9C8.67076 9 8.89689 8.90222 9.08463 8.70667C9.27236 8.51111 9.36623 8.27556 9.36623 8C9.36623 7.72444 9.27236 7.48889 9.08463 7.29333C8.89689 7.09778 8.67076 7 8.40623 7Z" fill="#9CA3AF"/>
</svg>
