<svg width="16" height="16" viewBox="0 0 16 16" fill="none" xmlns="http://www.w3.org/2000/svg">
<path d="M2.88 15C2.88 14.0311 3.11467 13.1333 3.584 12.3067C4.03627 11.5067 4.6464 10.8711 5.4144 10.4C6.208 9.91111 7.06987 9.66667 8 9.66667C8.93014 9.66667 9.792 9.91111 10.5856 10.4C11.3536 10.8711 11.9637 11.5067 12.416 12.3067C12.8853 13.1333 13.12 14.0311 13.12 15H11.84C11.84 14.28 11.6651 13.6089 11.3152 12.9867C10.9739 12.3822 10.5131 11.9022 9.9328 11.5467C9.33547 11.1822 8.6912 11 8 11C7.3088 11 6.66454 11.1822 6.0672 11.5467C5.48694 11.9022 5.02614 12.3822 4.6848 12.9867C4.33494 13.6089 4.16 14.28 4.16 15H2.88ZM8 9C7.30027 9 6.656 8.81778 6.0672 8.45333C5.48694 8.09778 5.02614 7.61778 4.6848 7.01333C4.33494 6.4 4.16 5.72889 4.16 5C4.16 4.27111 4.33494 3.6 4.6848 2.98667C5.02614 2.38222 5.48694 1.90222 6.0672 1.54667C6.656 1.18222 7.30027 1 8 1C8.69974 1 9.344 1.18222 9.9328 1.54667C10.5131 1.90222 10.9739 2.38222 11.3152 2.98667C11.6651 3.6 11.84 4.27111 11.84 5C11.84 5.72889 11.6651 6.4 11.3152 7.01333C10.9739 7.61778 10.5131 8.09778 9.9328 8.45333C9.344 8.81778 8.69974 9 8 9ZM8 7.66667C8.4608 7.66667 8.88747 7.54667 9.28 7.30667C9.67254 7.06667 9.984 6.74222 10.2144 6.33333C10.4448 5.92444 10.56 5.48 10.56 5C10.56 4.52 10.4448 4.07556 10.2144 3.66667C9.984 3.25778 9.67254 2.93333 9.28 2.69333C8.88747 2.45333 8.4608 2.33333 8 2.33333C7.5392 2.33333 7.11254 2.45333 6.72 2.69333C6.32747 2.93333 6.016 3.25778 5.7856 3.66667C5.5552 4.07556 5.44 4.52 5.44 5C5.44 5.48 5.5552 5.92444 5.7856 6.33333C6.016 6.74222 6.32747 7.06667 6.72 7.30667C7.11254 7.54667 7.5392 7.66667 8 7.66667Z" fill="white"/>
</svg>
